HIERARCHY
ROOT Hips
{
	OFFSET 0.00000 0.00000 0.00000
	CHANNELS 6 Xposition Yposition Zposition Zrotation Yrotation Xrotation 
	JOINT LHipJoint
	{
		OFFSET 0 0 0
		CHANNELS 3 Zrotation Yrotation Xrotation
		JOINT LeftHip
		{
			OFFSET 3.13874 -1.57224 1.49786
			CHANNELS 3 Zrotation Yrotation Xrotation
			JOINT LeftKnee
			{
				OFFSET 2.10955 -5.79594 0.00000
				CHANNELS 3 Zrotation Yrotation Xrotation
				JOINT LeftAnkle
				{
					OFFSET 2.41843 -6.64458 0.00000
					CHANNELS 3 Zrotation Yrotation Xrotation
					JOINT LeftToe
					{
						OFFSET 0.04713 -0.12948 1.66229
						CHANNELS 3 Zrotation Yrotation Xrotation
						End Site
						{
							OFFSET 0.00000 -0.00000 0.85167
						}
					}
				}
			}
		}
	}
	JOINT RHipJoint
	{
		OFFSET 0 0 0
		CHANNELS 3 Zrotation Yrotation Xrotation
		JOINT RightHip
		{
			OFFSET -3.13988 -1.57224 1.49786
			CHANNELS 3 Zrotation Yrotation Xrotation
			JOINT RightKnee
			{
				OFFSET -2.15006 -5.90725 0.00000
				CHANNELS 3 Zrotation Yrotation Xrotation
				JOINT RightAnkle
				{
					OFFSET -2.34496 -6.44273 0.00000
					CHANNELS 3 Zrotation Yrotation Xrotation
					JOINT RightToe
					{
						OFFSET -0.08699 -0.23900 1.55223
						CHANNELS 3 Zrotation Yrotation Xrotation
						End Site
						{
							OFFSET -0.00000 -0.00000 0.80281
						}
					}
				}
			}
		}
	}
	JOINT lowerback
	{
		OFFSET 0 0 0
		CHANNELS 3 Zrotation Yrotation Xrotation
		JOINT Chest
		{
			OFFSET 0.01292 1.96517 -0.16495
			CHANNELS 3 Zrotation Yrotation Xrotation
			JOINT Chest2
			{
				OFFSET 0.02122 1.88666 0.19706
				CHANNELS 3 Zrotation Yrotation Xrotation
				JOINT lowerneck
				{
					OFFSET 0 0 0
					CHANNELS 3 Zrotation Yrotation Xrotation
					JOINT Neck
					{
						OFFSET -0.01683 1.81591 0.07903
						CHANNELS 3 Zrotation Yrotation Xrotation
						JOINT Head
						{
							OFFSET 0.00815 1.74013 -0.47700
							CHANNELS 3 Zrotation Yrotation Xrotation
							End Site
							{
								OFFSET -0.00204 1.83225 -0.16933
							}
						}
					}
				}
				JOINT LeftCollar
				{
					OFFSET 0 0 0
					CHANNELS 3 Zrotation Yrotation Xrotation
					JOINT LeftShoulder
					{
						OFFSET 3.38482 1.41533 0.19802
CHANNELS 3 Zrotation Xrotation Yrotation
						JOINT LeftElbow
						{
OFFSET 0 -4.327120 0.000000
CHANNELS 3 Zrotation Xrotation Yrotation
							JOINT LeftWrist
							{
OFFSET 0 -3.285870 -0.000000
CHANNELS 3 Zrotation Xrotation Yrotation
								JOINT lhand
								{
									OFFSET 0 0 0
CHANNELS 3 Zrotation Xrotation Yrotation
									JOINT LFingers
									{
OFFSET 0 -0.433160 -0.000000
CHANNELS 3 Zrotation Xrotation Yrotation
										End Site
										{
OFFSET 0 -0.349220 -0.000000
										}
									}
								}
								JOINT LThumb
								{
OFFSET 0 0.000000 0.000000
CHANNELS 3 Zrotation Xrotation Yrotation
									End Site
									{
OFFSET 0 -0.354560 0.354560
									}
								}
							}
						}
					}
				}
				JOINT RightCollar
				{
					OFFSET 0 0 0
					CHANNELS 3 Zrotation Yrotation Xrotation
					JOINT RightShoulder
					{
						OFFSET -3.09725 1.62858 -0.14144
CHANNELS 3 Zrotation Xrotation Yrotation
						JOINT RightElbow
						{
OFFSET 0 -4.291040 0.000000
CHANNELS 3 Zrotation Xrotation Yrotation
							JOINT RightWrist
							{
OFFSET 0 -3.227200 -0.000000
CHANNELS 3 Zrotation Xrotation Yrotation
								JOINT rhand
								{
									OFFSET 0 0 0
CHANNELS 3 Zrotation Xrotation Yrotation
									JOINT RFingers
									{
OFFSET 0 -0.543620 -0.000000
CHANNELS 3 Zrotation Xrotation Yrotation
										End Site
										{
OFFSET 0 -0.438280 -0.000000
										}
									}
								}
								JOINT RThumb
								{
OFFSET 0 0.000000 0.000000
CHANNELS 3 Zrotation Xrotation Yrotation
									End Site
									{
OFFSET 0 -0.444970 0.444970
									}
								}
							}
						}
					}
				}
			}
		}
	}
}
MOTION
Frames: 4
Frame Time: 0.008333333333333333
-12.960883 14.260551 1.302154 -12.970281 78.578179 7.510325 0.000000 0.000000 0.000000 -16.460351 -18.673038 -46.732593 9.736056 17.256340 58.599203 -1.691138 -31.786823 -12.762716 0.404026 -4.080512 -11.303179 0.000000 0.000000 0.000000 24.235474 29.417089 -40.318607 -7.441351 -15.692483 50.524291 -2.328316 5.090829 -27.737110 -0.880008 5.980195 -16.727044 -1.094371 0.078513 17.580883 3.289083 0.548965 -8.671661 4.362880 0.803864 -20.414700 -7.400838 -7.979478 -22.491069 6.660345 -10.453675 23.738264 1.912575 -4.418406 12.351154 0.000000 0.000000 0.000000 13.038454 -1.821075 -34.480120 53.449069 -54.260080 28.961256 37.999617 22.473296 -24.670466 0.000000 0.000000 0.000000 -7.125000 0.000000 0.000000 10.159776 59.919897 -3.714112 0.000000 0.000000 0.000000 -31.953605 16.262661 55.260055 -56.526664 -55.228726 -31.487137 -23.951965 5.784063 11.783069 0.000000 0.000000 0.000000 7.125000 0.000000 0.000000 2.935141 42.816732 0.151888
-12.879787 14.351209 1.207289 -9.033843 74.036409 10.868006 0.000000 0.000000 0.000000 -18.210093 -14.988018 -44.491115 9.118272 16.879415 56.492620 -1.475631 -31.719526 -14.099840 0.415348 -4.136752 -11.461622 0.000000 0.000000 0.000000 24.043214 30.546638 -39.030281 -7.218246 -15.511926 49.693263 -1.981718 6.004619 -25.379470 -0.939293 6.171932 -17.284378 -1.845379 -0.517381 17.169546 3.255819 -0.483459 -8.965601 5.108456 0.459793 -20.427065 -7.726643 -8.207598 -22.520551 7.071644 -10.891610 25.144391 2.041673 -4.552767 13.006190 0.000000 0.000000 0.000000 14.762646 -6.146801 -33.527115 58.699357 -55.915374 33.269785 38.546444 22.408319 -23.494251 0.000000 0.000000 0.000000 -7.125000 0.000000 0.000000 10.932468 58.711719 -3.697375 0.000000 0.000000 0.000000 -34.544752 17.357755 55.423557 -64.984863 -57.413422 -38.534772 -24.501878 5.132226 11.220653 0.000000 0.000000 0.000000 7.125000 0.000000 0.000000 2.373488 42.261107 0.145113
-12.785516 14.490267 1.115020 -7.184156 69.506147 12.068264 0.000000 0.000000 0.000000 -19.654193 -11.352319 -42.001136 8.363635 16.375220 53.854197 -1.173575 -31.165224 -15.430339 0.412380 -4.122015 -11.420209 0.000000 0.000000 0.000000 24.250916 31.137559 -37.184366 -6.766339 -15.129040 47.980008 -1.544849 7.470162 -22.234445 -0.674029 5.203044 -14.499458 -2.410813 -1.240277 16.755153 3.344949 -1.612261 -9.519596 5.786737 0.034936 -20.363808 -7.857753 -8.297121 -22.352834 7.345188 -11.196758 26.606483 2.124621 -4.630557 13.635797 0.000000 0.000000 0.000000 16.948543 -9.970042 -32.577180 65.250206 -57.508215 38.750990 37.653849 21.606334 -22.289926 0.000000 0.000000 0.000000 -7.125000 0.000000 0.000000 9.907139 57.083570 -2.978852 0.000000 0.000000 0.000000 -37.272541 18.128458 55.859456 -73.902693 -58.937353 -46.114722 -25.961928 4.204964 10.095266 0.000000 0.000000 0.000000 7.125000 0.000000 0.000000 0.940673 41.177564 0.084732
-12.676628 14.685154 1.045654 -6.077891 64.539152 12.492630 0.000000 0.000000 0.000000 -20.778695 -7.369377 -39.205388 7.443681 15.687743 50.522003 -0.794973 -29.996768 -16.662215 0.420974 -4.164352 -11.539518 0.000000 0.000000 0.000000 24.653119 31.727027 -34.979647 -6.173677 -14.591150 45.668488 -1.064493 8.786736 -18.497884 -0.339126 3.700726 -10.241224 -3.265124 -1.873851 16.158501 3.432505 -2.691876 -9.976539 6.674976 -0.315259 -20.243452 -8.056742 -8.313054 -21.988304 7.899630 -11.478967 27.857467 2.345414 -4.677812 14.181224 0.000000 0.000000 0.000000 19.227392 -12.715744 -30.741516 72.655645 -58.797075 45.043512 38.688384 23.581767 -21.322294 0.000000 0.000000 0.000000 -7.125000 0.000000 0.000000 11.130626 56.200581 -3.083843 0.000000 0.000000 0.000000 -39.839717 18.144335 56.368375 -81.723823 -59.709466 -52.841334 -27.719165 3.682659 9.571485 0.000000 0.000000 0.000000 7.125000 0.000000 0.000000 -0.662629 40.763021 -0.070968
